<svg width="1789" height="400" viewBox="0 0 1789 400" fill="none" xmlns="http://www.w3.org/2000/svg">
<g clip-path="url(#clip0_63_2)">
<path d="M196.257 140.948C197.893 138.641 200.546 137.27 203.375 137.27L273.61 137.27C280.695 137.27 284.828 145.267 280.729 151.046L204.384 258.68C202.747 260.987 200.094 262.358 197.265 262.358L127.03 262.358C119.945 262.358 115.813 254.361 119.912 248.582L196.257 140.948Z" fill="#ED3411"/>
<path d="M196.257 262.572C197.893 260.265 200.546 258.894 203.375 258.894L273.61 258.894C280.695 258.894 284.828 266.891 280.729 272.67L204.384 380.304C202.747 382.612 200.094 383.982 197.265 383.982L127.03 383.982C119.945 383.982 115.813 375.985 119.912 370.206L196.257 262.572Z" fill="#ED3411"/>
<path d="M205.329 131.645C205.329 136.375 201.348 140.209 196.438 140.209H129.221C121.994 140.209 117.786 132.345 121.98 126.675L201.78 18.7907C202.147 18.2946 202.741 18 203.373 18V18C204.453 18 205.329 18.8434 205.329 19.8838V131.645Z" fill="#ED3411"/>
<circle cx="263.972" cy="364.698" r="18.96" fill="#F8FBFD"/>
<path d="M464.899 68.296V159.896C472.899 153.763 481.699 148.963 491.299 145.496C500.899 142.029 511.299 140.296 522.499 140.296C535.832 140.296 548.232 142.829 559.699 147.896C571.165 152.963 581.032 159.896 589.299 168.696C597.832 177.496 604.499 187.896 609.299 199.896C614.365 211.896 616.899 224.696 616.899 238.296C616.899 252.163 614.365 265.096 609.299 277.096C604.232 288.829 597.299 299.096 588.499 307.896C579.699 316.696 569.299 323.629 557.299 328.696C545.299 333.763 532.499 336.296 518.899 336.296H420.899V292.296H518.899C526.365 292.296 533.299 290.963 539.699 288.296C546.365 285.363 552.099 281.496 556.899 276.696C561.965 271.896 565.832 266.163 568.499 259.496C571.432 252.829 572.899 245.763 572.899 238.296C572.899 230.563 571.432 223.496 568.499 217.096C565.832 210.429 561.965 204.696 556.899 199.896C552.099 195.096 546.365 191.363 539.699 188.696C533.299 185.763 526.365 184.296 518.899 184.296C511.165 184.296 503.965 185.763 497.299 188.696C490.899 191.363 485.299 195.096 480.499 199.896C475.699 204.696 471.832 210.429 468.899 217.096C466.232 223.496 464.899 230.563 464.899 238.296V264.296H420.899V68.296H464.899ZM739.024 184.296C724.89 184.296 713.69 188.163 705.424 195.896C697.157 203.629 693.024 214.163 693.024 227.496V336.296H649.024V229.096C649.024 215.496 651.157 203.229 655.424 192.296C659.69 181.363 665.69 172.029 673.424 164.296C681.424 156.563 690.89 150.696 701.824 146.696C713.024 142.429 725.424 140.296 739.024 140.296V184.296ZM788.993 52.296C796.993 52.296 803.659 54.9627 808.993 60.296C814.326 65.6293 816.993 72.296 816.993 80.296C816.993 88.296 814.326 94.9627 808.993 100.296C803.659 105.629 796.993 108.296 788.993 108.296C780.993 108.296 774.326 105.629 768.993 100.296C763.659 94.9627 760.993 88.296 760.993 80.296C760.993 72.296 763.659 65.6293 768.993 60.296C774.326 54.9627 780.993 52.296 788.993 52.296ZM766.993 144.296H810.993V336.296H766.993V144.296ZM942.977 184.296C934.977 184.296 927.51 185.763 920.577 188.696C913.91 191.363 908.044 195.229 902.977 200.296C898.177 205.363 894.31 211.363 891.377 218.296C888.444 224.963 886.977 232.296 886.977 240.296C886.977 248.296 888.444 255.763 891.377 262.696C894.31 269.363 898.177 275.229 902.977 280.296C908.044 285.096 913.91 288.963 920.577 291.896C927.51 294.829 934.977 296.296 942.977 296.296C954.977 296.296 965.51 293.229 974.577 287.096C983.91 280.963 990.577 272.696 994.577 262.296H1040.58C1038.18 273.763 1033.91 284.296 1027.78 293.896C1021.91 303.496 1014.71 311.763 1006.18 318.696C997.644 325.363 987.91 330.696 976.977 334.696C966.31 338.429 954.977 340.296 942.977 340.296C929.11 340.296 916.044 337.763 903.777 332.696C891.51 327.363 880.844 320.296 871.777 311.496C862.977 302.429 855.91 291.763 850.577 279.496C845.51 267.229 842.977 254.163 842.977 240.296C842.977 226.163 845.51 213.096 850.577 201.096C855.91 188.829 862.977 178.163 871.777 169.096C880.844 160.029 891.51 152.963 903.777 147.896C916.044 142.829 929.11 140.296 942.977 140.296C954.977 140.296 966.31 142.296 976.977 146.296C987.91 150.029 997.644 155.363 1006.18 162.296C1014.71 168.963 1021.91 177.096 1027.78 186.696C1033.91 196.296 1038.18 206.829 1040.58 218.296H994.577C990.577 207.896 983.91 199.629 974.577 193.496C965.51 187.363 954.977 184.296 942.977 184.296ZM1235.66 144.296C1235.66 163.763 1231.53 181.096 1223.26 196.296C1214.99 211.229 1203.26 223.363 1188.06 232.696C1195.53 238.029 1202.46 244.696 1208.86 252.696C1215.53 260.696 1222.06 270.296 1228.46 281.496L1260.06 336.296H1209.26L1184.06 292.696C1179.53 284.963 1174.99 278.563 1170.46 273.496C1166.19 268.163 1161.53 263.896 1156.46 260.696C1151.39 257.496 1145.79 255.229 1139.66 253.896C1133.53 252.563 1126.46 251.896 1118.46 251.896H1116.46V336.296H1072.46V68.296H1116.46V208.696H1120.46C1143.13 208.696 1160.59 203.096 1172.86 191.896C1185.39 180.429 1191.66 164.563 1191.66 144.296H1235.66ZM1325.84 68.296V336.296H1281.84V68.296H1325.84ZM1387.82 52.296C1395.82 52.296 1402.49 54.9627 1407.82 60.296C1413.15 65.6293 1415.82 72.296 1415.82 80.296C1415.82 88.296 1413.15 94.9627 1407.82 100.296C1402.49 105.629 1395.82 108.296 1387.82 108.296C1379.82 108.296 1373.15 105.629 1367.82 100.296C1362.49 94.9627 1359.82 88.296 1359.82 80.296C1359.82 72.296 1362.49 65.6293 1367.82 60.296C1373.15 54.9627 1379.82 52.296 1387.82 52.296ZM1365.82 144.296H1409.82V336.296H1365.82V144.296ZM1579.01 144.296H1632.61L1565.01 237.096L1636.61 336.296H1583.01L1536.21 265.496L1489.41 336.296H1435.81L1507.41 237.096L1439.81 144.296H1493.41L1536.21 209.496L1579.01 144.296Z" fill="white"/>
</g>
<defs>
<clipPath id="clip0_63_2">
<rect width="1789" height="400" fill="white"/>
</clipPath>
</defs>
</svg>
